<svg version="1.0" xmlns="http://www.w3.org/2000/svg" width="346.667" height="346.667" viewBox="0 0 260 260"><path d="M93.5 56.6c-49.1 49.7-68.7 69.7-70.8 72.1-1.7 1.9-1.6 2.1 2.5 6.5 2.4 2.5 7.5 8.1 11.5 12.4 7.5 8.3 20.2 21 65.3 65.2 21 20.7 27.8 26.8 29 26.2 3.3-1.9 108-106.6 108-108 0-1.3-108-111.1-109.1-110.9-.2 0-16.6 16.4-36.4 36.5zm44.2 1.7c2.8.7 9.3 7.1 9.3 9.2 0 .8.4 1.5.8 1.5.5 0 .9.6.9 1.2 0 .7.3 2.5.6 4 .3 1.6.2 2.8-.2 2.8-.5 0-.7 1.2-.5 2.6.3 2.8-1.4 7.4-3.1 8.6-.5.4-.7.8-.2.8.4 0-.1.8-1 1.8-1 1.1-2.1 1.7-2.5 1.5-.5-.2-.8 0-.8.5 0 2.7-14 5.5-15.5 3.2-.4-.6-1.1-.8-1.6-.5-.5.4-.9.1-.9-.5 0-.7-.6-1-1.2-.7-3 1-11.1-11.3-9.4-14.2.4-.5.2-1.2-.4-1.6-.6-.3-.7-1.8-.4-3.3.3-1.5.6-3.5.6-4.5-.1-.9.4-1.7.9-1.7.6 0 .9-.6.7-1.2-.4-1.2-.1-1.9 2.9-5 4.9-5.2 12.1-6.8 21-4.5zm35.8 58.7v7.5H160c-7.4.1-14.2-.2-15.1-.7-.9-.4-2-.4-2.4 0-.3.4-1.6.7-2.8.7h-2.2l-.3 37.4-.3 37.4 6.1-6c3.3-3.4 6-6 6-5.9 0 .1 7.2-6.8 16.1-15.5 8.8-8.7 16-16.1 15.9-16.6 0-.4-1.2-.9-2.7-1-4.7-.4-5.6-1.1-5.1-4.3.3-1.7 0-3-.6-3s-.4-.5.4-1c1.1-.7 1.1-1 .2-1-.9 0-1-.5-.3-1.8.9-1.6 2.3-1.8 11.8-1.7 5.9 0 11.4.5 12.2.9.9.6 1.2.5.8-.1-.9-1.4 9.5-1.2 10.5.2.5.6.8.6.8-.2 0-.7 1.2-1 3.3-.8 1.7.2 3.6.4 4 .4.9.1-84.7 86.1-85.7 86.1-.3 0-13-12.4-28.2-27.5S74.3 173 73.9 173c-.5 0-.9-.4-.9-1 0-1-1.9-3-9.2-9.7-2.5-2.3-4.3-4.4-4-4.7.3-.3-.3-.6-1.3-.6s-1.6-.2-1.3-.5c.3-.3-2.5-3.5-6.3-7.2-3.8-3.6-6.7-6.9-6.4-7.2.5-.9 5.9-.6 7.4.4.6.3 1.1.2 1.1-.3 0-1.2 6-1 6 .3 0 .7.3.7.8 0 .9-1.3 7.2-1.5 7.2-.2 0 .6.5.6 1.3 0 1.5-1.1 8.7-1 10.6.1.9.6 1.2.5.8-.1-.4-.6.9-1 3.3-.9 2.2 0 4.1.5 4.2 1.1 0 .5.2 1.9.2 3 .1 1.1.5 2.6.9 3.2.5.7.4 1.3-.2 1.3-.5 0-.8.9-.6 2 .3 1.8-.1 1.9-4.6 1.6-2.7-.3-5.1 0-5.5.5-.3.5 0 .9.7.9s1 .3.6.6c-.9 1 39.3 40.1 42.4 41.2.6.3.8-13.3.7-36l-.3-36.3h-18.2c-13.1 0-18.6-.4-19.5-1.3-.6-.6-.8-1.2-.2-1.2.8 0 1-4.4.4-7.5-.1-.6-.2-1.9-.1-3.1.1-2 .4-2 44.9-2l44.7.1v7.5z"/></svg>