<svg xmlns="http://www.w3.org/2000/svg" viewBox="0 0 120 120"><path fill="#05517E" d="M84.1 52c-4.2-1.9-8-2.5-12.4-2.1-6.2.5-11.6 2.8-17.6 4-3.8.8-9.1 1.2-13 .2-.3-.1-3.1-.7-3.1-.8.9.8 7 7.6 19 3.9 4.9-1.5 10.3-4.1 15.3-5.1 3.5-.6 8.4-.9 11.8-.1z"/><path fill="#05517E" d="M82.1 55.5c-3.6-1.5-6.8-1.8-10.3-1.1-5 1-9 3.7-13.8 5.4-3 1.1-7.2 1.9-10.4 1.3-.2-.1-2.6-.5-2.6-.5.8.7 1.6 1.1 2.3 1.4 1.4.5 2.4.8 3.8 1.1 3.5.6 7.4.9 10.5-.6 3.8-1.8 7.1-4.5 11-6 2.7-.9 6.6-1.6 9.5-1z"/><path fill="#231F20" d="M57 37.7l3.1-10.2s-2.5-.2-7.7 1.3V17.6l-1.4.6v11c-.5.2-1 .3-1.6.5v-11l-1.4 1v10.7c-2.2.9-4.8 2-7.6 3.5 0 0 11.7-2.9 15.8-2.1l-1.7 5.9c-1.7 0-3.4 0-5.3.1 0 0-7.4.6-14.2 2.3 0 .5-.1-.1 0 .4 7.9-1 13.5-1 13.5-1 15.4-.5 27.5 2.6 29.5 9l3.4.6c2 .4 3.5 1.3 3.5 1.3-.7-6.7-8.2-12.3-27.9-12.7z"/><path fill="#05517E" d="M70 60.2c-2.8 1.8-5.5 5.4-10.7 5.9.7.1 5.7 1.8 9.9-2.1 7-6.5 10.1-5.1 10.1-5.1-.1-.1-.3-.1-.4-.2-2.8-1.1-6.7.1-8.9 1.5z"/><path fill="#231F20" d="M54.3 44.7l.3-.9c.2-.7.2-1.2 0-1.4-.3-.2-.8-.4-1.6-.4h-2.8l-2.6 8.9h2.8c.9 0 1.4-.1 1.8-.4.3-.2.6-.7.8-1.3 0 0 .2-.8.6-2.2.2-.6.2-.9-.1-1 .3 0 .5-.4.8-1.3zm-1.1-.8l-.1.4-.1.5c-.1.5-.5.7-1 .7h-1.4l.6-2.1h1.9c.2 0 .2.2.1.5zm-.9 3.4c-.1.2-.1.4-.2.8l-.4.9c-.1.4-.5.7-1 .7h-1.4l.9-2.9h1.3c.2 0 .4 0 .6.1.2-.1.2.1.2.4zM47.4 42H46l-6.9 8.9h1.4l.9-1.2h3.4l-.4 1.2h1.2l2.8-8.9h-1zm-2.1 6.5h-2.8l.6-.9 3.3-4.3h.4l-1.5 5.2z"/><path fill="#05517E" d="M14.8 89.5h-1.6l-.4-1.5h-2.3l-.5 1.5H8.4l2.4-8.8h1.6l2.4 8.8zm-2.4-3.1l-.7-3.3-.7 3.3h1.4zM16.4 88.1c.7-.8.8-2.3.8-3.2v-4.2H22v7.5h.8v2.7h-1.5v-1.3h-4v1.3h-1.5v-2.7h.6zm2.3-3.2c0 1-.2 2.4-.7 3.2h2.4V82h-1.7v2.9zM27.5 87.4l-1.7-3.5.1 2.5v3.1h-1.5v-8.8h1.5l1.8 3.9 1.8-3.9H31v8.8h-1.5v-3.1l.1-2.5-1.7 3.5zM33.2 80.7h1.5v2.1l-.2 3.7 2.7-5.8h1.5v8.8h-1.5v-2.2l.1-3.4-2.6 5.6h-1.5zM43.1 80.7c2.1 0 3.1.8 3.1 2.6v.8c0 1.8-1 2.7-3.1 2.7h-.6v2.7h-1.6v-8.9h2.2zm0 4.6c1.1 0 1.5-.4 1.5-1.2v-.7c0-.8-.3-1.3-1.5-1.3h-.6v3.2h.6zM53.3 89.5h-1.6l-.5-1.5H49l-.5 1.6h-1.6l2.4-8.8h1.6l2.4 8.7zm-2.5-3.1l-.7-3.3-.7 3.3h1.4zM60.9 89.5h-1.6v-7.4h-2.1l-.1 3.3c-.1 2.5-.3 4.4-2.9 4.1l.1-1.6c1.4.1 1.3-1.5 1.3-2.6l.1-4.8h5.2v9zM67.5 82.1h-1.8v7.4h-1.6v-7.4h-1.8v-1.4h5.2zM74 80.7v1.4h-3.5v2.2h3v1.5h-3v2.3h3.7v1.5h-5.3v-8.9zM75.9 80.7h1.6v2.1l-.2 3.8 2.6-5.8h1.6v8.9H80v-2.3l.1-3.4-2.6 5.6H76v-8.9zm1-2.4h1.3c0 .5.3.6.7.6.4 0 .7-.1.7-.6h1.3c0 1.3-.6 1.8-2 1.8-1.5 0-2-.5-2-1.8zM89.3 86.8c0 1.9-.9 2.8-3 2.8s-3-.8-3-2.6v-3.6c0-1.9.8-2.6 3-2.6 2.1 0 3 .8 3 2.7h-1.6c0-.9-.2-1.3-1.4-1.3-1.1 0-1.4.5-1.4 1.3v3.4c0 .8.2 1.3 1.4 1.3 1.1 0 1.4-.5 1.4-1.4h1.6zM95.3 89.5L93 85.8h-.6v3.7h-1.6v-8.9h1.6v3.6h.4c.7 0 .8-.6 1-1.2.4-1.3.8-2.6 3.1-2.3l-.1 1.5c-1.2-.1-1.2.3-1.5 1.3-.2.7-.4 1.3-.9 1.7l2.9 4.4h-2zM98.6 80.7h1.6v2.1l-.2 3.7 2.6-5.8h1.6v8.8h-1.6v-2.2l.2-3.4-2.6 5.6h-1.6zM111.4 80.7v1.4h-3.5v2.2h3v1.5h-3v2.3h3.7v1.5h-5.3v-8.9zM41.7 93.5h2.5c1.5 0 2.6.7 2.6 2.3 0 .8-.3 1.4-1.1 1.8.9.2 1.5.9 1.5 2.1 0 2.1-1.1 2.8-3.1 2.8h-2.4v-9zm1.5 7.4h.8c1 0 1.4-.2 1.4-1.3 0-.9-.3-1.3-1.4-1.3h-.8v2.6zm.1-6v2h1c.6 0 1-.5 1-1 0-.4-.2-.9-1-.9h-1zM53.8 93.5v1.4h-3.5v2.2h3v1.5h-3v2.3h3.6v1.5h-5.2v-8.9zM58.3 93.5c2.1 0 3.1.8 3.1 2.6v.9c0 1.8-1 2.7-3.1 2.7h-.6v2.7h-1.6v-8.8h2.2zm0 4.6c1.1 0 1.5-.4 1.5-1.2v-.7c0-.8-.3-1.3-1.5-1.3h-.6v3.2h.6zM66.1 102.4v-1.1h-.3c-2.1 0-3.1-.8-3.1-2.6v-1.5c0-1.9 1-2.6 3.1-2.6h.3v-1.1h1.6v1.1h.3c2.1 0 3.1.8 3.1 2.6v1.5c0 1.8-1 2.6-3.1 2.6h-.3v1.1h-1.6zm0-6.5h-.3c-1.2 0-1.5.5-1.5 1.3v1.3c0 .8.4 1.3 1.5 1.3h.3v-3.9zm2 3.9c1.1 0 1.5-.4 1.5-1.3v-1.3c0-.8-.3-1.3-1.5-1.3h-.3v3.9h.3zM72.9 93.5h1.6v2.1l-.2 3.7 2.6-5.8h1.6v8.8h-1.6v-2.2l.2-3.4-2.7 5.6h-1.5z"/></svg>