<?xml version="1.0" encoding="utf-8"?>
<!-- Generator: Adobe Illustrator 22.0.1, SVG Export Plug-In . SVG Version: 6.00 Build 0)  -->
<svg version="1.1" id="Слой_1" xmlns="http://www.w3.org/2000/svg" xmlns:xlink="http://www.w3.org/1999/xlink" x="0px" y="0px"
	 width="90px" height="140px" viewBox="0 0 90 140" style="enable-background:new 0 0 90 140;" xml:space="preserve">
<style type="text/css">
	.st0{fill:#164194;}
	.st1{fill:#E41513;}
</style>
<g>
	<g>
		<path class="st0" d="M11,96.8h2v5.9h1.7l2-5.9h2.1l-2.3,6.7l2.4,11.2h-2l-2.2-10.4H13v10.4h-2V96.8z"/>
		<path class="st0" d="M28.7,106.3c0,0.5-0.1,0.9-0.2,1.3c-0.1,0.4-0.3,0.6-0.6,0.9c-0.3,0.2-0.6,0.4-0.9,0.5s-0.7,0.2-1.1,0.2H24
			v5.7h-2v-18h3.8c0.5,0,0.9,0.1,1.3,0.2c0.4,0.1,0.6,0.3,0.9,0.6c0.2,0.2,0.4,0.5,0.5,0.9c0.1,0.3,0.2,0.7,0.2,1.1V106.3z
			 M26.7,99.6c0-0.2-0.1-0.4-0.2-0.5c-0.1-0.2-0.3-0.2-0.6-0.2H24v8.3h1.8c0.2,0,0.4-0.1,0.6-0.2c0.1-0.1,0.2-0.3,0.2-0.6V99.6z"/>
		<path class="st0" d="M37.5,111.4H34l-0.4,3.4h-2l2-18h4.2l2.1,18h-2L37.5,111.4z M37.3,109.6l-1.2-10.7h-0.7l-1.2,10.7H37.3z"/>
		<path class="st0" d="M48.1,107.1h2v5.1c0,0.4-0.1,0.7-0.2,1.1c-0.1,0.3-0.3,0.6-0.5,0.9c-0.2,0.3-0.5,0.4-0.9,0.6
			c-0.4,0.1-0.8,0.2-1.3,0.2h-1.5c-0.5,0-0.9-0.1-1.3-0.2c-0.4-0.1-0.6-0.3-0.9-0.6c-0.2-0.2-0.4-0.5-0.5-0.9
			c-0.1-0.3-0.2-0.7-0.2-1.1V99.4c0-0.4,0.1-0.7,0.2-1.1c0.1-0.3,0.3-0.6,0.5-0.9c0.2-0.3,0.5-0.5,0.9-0.6c0.4-0.1,0.8-0.2,1.3-0.2
			h1.5c0.5,0,0.9,0.1,1.3,0.2c0.4,0.1,0.6,0.3,0.9,0.6c0.2,0.2,0.4,0.5,0.5,0.9c0.1,0.3,0.2,0.7,0.2,1.1v3.5h-2v-3.5
			c0-0.2-0.1-0.4-0.2-0.5c-0.1-0.2-0.3-0.2-0.6-0.2h-1.5c-0.3,0-0.5,0.1-0.6,0.2c-0.1,0.2-0.2,0.3-0.2,0.5v12.7
			c0,0.2,0.1,0.4,0.2,0.5c0.1,0.2,0.3,0.2,0.6,0.2h1.5c0.3,0,0.5-0.1,0.6-0.2c0.1-0.2,0.2-0.3,0.2-0.5V107.1z"/>
		<path class="st0" d="M58.5,96.8h2v18h-2v-10.3h-3.1v10.3h-2v-18h2v5.7h3.1V96.8z"/>
		<path class="st0" d="M68.3,96.7c0.5,0,0.9,0.1,1.3,0.2c0.4,0.1,0.6,0.3,0.9,0.6c0.2,0.2,0.4,0.5,0.5,0.9c0.1,0.3,0.2,0.7,0.2,1.1
			v12.7c0,0.4-0.1,0.7-0.2,1.1c-0.1,0.3-0.3,0.6-0.5,0.9c-0.2,0.3-0.5,0.4-0.9,0.6c-0.4,0.1-0.8,0.2-1.3,0.2h-1.5
			c-0.5,0-0.9-0.1-1.3-0.2s-0.6-0.3-0.9-0.6c-0.2-0.2-0.4-0.5-0.5-0.9c-0.1-0.3-0.2-0.7-0.2-1.1V99.4c0-0.4,0.1-0.7,0.2-1.1
			c0.1-0.3,0.3-0.6,0.5-0.9c0.2-0.3,0.5-0.5,0.9-0.6c0.4-0.1,0.8-0.2,1.3-0.2H68.3z M68.3,113c0.3,0,0.5-0.1,0.6-0.2
			c0.1-0.2,0.2-0.3,0.2-0.5V99.4c0-0.2-0.1-0.4-0.2-0.5c-0.1-0.2-0.3-0.2-0.6-0.2h-1.5c-0.3,0-0.5,0.1-0.6,0.2
			c-0.1,0.2-0.2,0.3-0.2,0.5v12.7c0,0.2,0.1,0.4,0.2,0.5c0.1,0.2,0.3,0.2,0.6,0.2H68.3z"/>
		<path class="st0" d="M80.5,96.8v2h-4v3.7h3v2h-3v8.3h4v2h-6v-18H80.5z"/>
		<path class="st0" d="M13.7,130.9h2v5.1c0,0.4-0.1,0.7-0.2,1.1c-0.1,0.3-0.3,0.6-0.5,0.9c-0.2,0.3-0.5,0.4-0.9,0.6
			c-0.4,0.1-0.8,0.2-1.3,0.2h-1.5c-0.5,0-0.9-0.1-1.3-0.2c-0.4-0.1-0.6-0.3-0.9-0.6c-0.2-0.2-0.4-0.5-0.5-0.9
			c-0.1-0.3-0.2-0.7-0.2-1.1v-12.7c0-0.4,0.1-0.7,0.2-1.1c0.1-0.3,0.3-0.6,0.5-0.9c0.2-0.3,0.5-0.5,0.9-0.6c0.4-0.1,0.8-0.2,1.3-0.2
			h1.5c0.5,0,0.9,0.1,1.3,0.2c0.4,0.1,0.6,0.3,0.9,0.6c0.2,0.2,0.4,0.5,0.5,0.9c0.1,0.3,0.2,0.7,0.2,1.1v3.5h-2v-3.5
			c0-0.2-0.1-0.4-0.2-0.5c-0.1-0.2-0.3-0.2-0.6-0.2h-1.5c-0.3,0-0.5,0.1-0.6,0.2c-0.1,0.2-0.2,0.3-0.2,0.5v12.7
			c0,0.2,0.1,0.4,0.2,0.5c0.1,0.2,0.3,0.2,0.6,0.2h1.5c0.3,0,0.5-0.1,0.6-0.2c0.1-0.2,0.2-0.3,0.2-0.5V130.9z"/>
		<path class="st0" d="M23.4,120.4c0.5,0,0.9,0.1,1.3,0.2c0.4,0.1,0.6,0.3,0.9,0.6c0.2,0.2,0.4,0.5,0.5,0.9c0.1,0.3,0.2,0.7,0.2,1.1
			v12.7c0,0.4-0.1,0.7-0.2,1.1c-0.1,0.3-0.3,0.6-0.5,0.9c-0.2,0.3-0.5,0.4-0.9,0.6c-0.4,0.1-0.8,0.2-1.3,0.2h-1.5
			c-0.5,0-0.9-0.1-1.3-0.2c-0.4-0.1-0.6-0.3-0.9-0.6c-0.2-0.2-0.4-0.5-0.5-0.9c-0.1-0.3-0.2-0.7-0.2-1.1v-12.7
			c0-0.4,0.1-0.7,0.2-1.1c0.1-0.3,0.3-0.6,0.5-0.9c0.2-0.3,0.5-0.5,0.9-0.6c0.4-0.1,0.8-0.2,1.3-0.2H23.4z M23.4,136.7
			c0.3,0,0.5-0.1,0.6-0.2c0.1-0.2,0.2-0.3,0.2-0.5v-12.7c0-0.2-0.1-0.4-0.2-0.5c-0.1-0.2-0.3-0.2-0.6-0.2h-1.5
			c-0.3,0-0.5,0.1-0.6,0.2c-0.1,0.2-0.2,0.3-0.2,0.5v12.7c0,0.2,0.1,0.4,0.2,0.5c0.1,0.2,0.3,0.2,0.6,0.2H23.4z"/>
		<path class="st0" d="M36.2,130.1c0,0.5-0.1,0.9-0.2,1.3c-0.1,0.4-0.3,0.6-0.6,0.9c-0.3,0.2-0.6,0.4-0.9,0.5s-0.7,0.2-1.1,0.2h-1.8
			v5.7h-2v-18h3.8c0.5,0,0.9,0.1,1.3,0.2c0.4,0.1,0.6,0.3,0.9,0.6c0.2,0.2,0.4,0.5,0.5,0.9c0.1,0.3,0.2,0.7,0.2,1.1V130.1z
			 M34.1,123.3c0-0.2-0.1-0.4-0.2-0.5c-0.1-0.2-0.3-0.2-0.6-0.2h-1.8v8.3h1.8c0.2,0,0.4-0.1,0.6-0.2c0.1-0.1,0.2-0.3,0.2-0.6V123.3z
			"/>
		<path class="st0" d="M51.6,120.6v18h-2v-7.8l0.3-8.4h-0.7l-1.9,11.8h-3.3l-1.9-11.8h-0.7l0.3,8.4v7.8h-2v-18h4.1l1.8,11.9h0.4
			l1.8-11.9H51.6z"/>
		<path class="st0" d="M59.4,120.4c0.5,0,0.9,0.1,1.3,0.2c0.4,0.1,0.6,0.3,0.9,0.6c0.2,0.2,0.4,0.5,0.5,0.9c0.1,0.3,0.2,0.7,0.2,1.1
			v12.7c0,0.4-0.1,0.7-0.2,1.1c-0.1,0.3-0.3,0.6-0.5,0.9c-0.2,0.3-0.5,0.4-0.9,0.6c-0.4,0.1-0.8,0.2-1.3,0.2h-1.5
			c-0.5,0-0.9-0.1-1.3-0.2c-0.4-0.1-0.6-0.3-0.9-0.6c-0.2-0.2-0.4-0.5-0.5-0.9c-0.1-0.3-0.2-0.7-0.2-1.1v-12.7
			c0-0.4,0.1-0.7,0.2-1.1c0.1-0.3,0.3-0.6,0.5-0.9c0.2-0.3,0.5-0.5,0.9-0.6c0.4-0.1,0.8-0.2,1.3-0.2H59.4z M59.4,136.7
			c0.3,0,0.5-0.1,0.6-0.2c0.1-0.2,0.2-0.3,0.2-0.5v-12.7c0-0.2-0.1-0.4-0.2-0.5c-0.1-0.2-0.3-0.2-0.6-0.2h-1.5
			c-0.3,0-0.5,0.1-0.6,0.2c-0.1,0.2-0.2,0.3-0.2,0.5v12.7c0,0.2,0.1,0.4,0.2,0.5c0.1,0.2,0.3,0.2,0.6,0.2H59.4z"/>
		<path class="st0" d="M69.4,120.6c0.5,0,0.9,0.1,1.3,0.2c0.4,0.1,0.6,0.3,0.9,0.6c0.2,0.2,0.4,0.5,0.5,0.9c0.1,0.3,0.2,0.7,0.2,1.1
			v1.3c0,0.8-0.1,1.4-0.4,1.8c-0.3,0.4-0.7,0.7-1.1,0.8c0.5,0.2,0.8,0.5,1.1,0.9c0.3,0.4,0.4,1,0.4,1.8v5.8c0,0.5-0.1,0.9-0.2,1.3
			c-0.1,0.4-0.3,0.6-0.6,0.9c-0.3,0.2-0.5,0.4-0.9,0.5c-0.3,0.1-0.7,0.2-1.1,0.2h-3.9v-18H69.4z M70.2,123.3c0-0.2-0.1-0.4-0.2-0.5
			c-0.1-0.2-0.3-0.2-0.6-0.2h-1.9v3.7h1.3c0.4,0,0.7-0.1,0.9-0.4c0.3-0.2,0.4-0.6,0.4-1V123.3z M70.2,129.7c0-0.4-0.1-0.8-0.4-1
			c-0.3-0.2-0.6-0.4-0.9-0.4h-1.3v8.3h1.9c0.2,0,0.4-0.1,0.6-0.2c0.1-0.1,0.2-0.3,0.2-0.6V129.7z"/>
		<path class="st0" d="M79.9,120.4c0.5,0,0.9,0.1,1.3,0.2c0.4,0.1,0.6,0.3,0.9,0.6c0.2,0.2,0.4,0.5,0.5,0.9c0.1,0.3,0.2,0.7,0.2,1.1
			v12.7c0,0.4,0,0.7-0.2,1.1c-0.1,0.3-0.3,0.6-0.5,0.9c-0.2,0.3-0.5,0.4-0.9,0.6c-0.4,0.1-0.8,0.2-1.3,0.2h-1.5
			c-0.5,0-0.9-0.1-1.3-0.2c-0.4-0.1-0.6-0.3-0.9-0.6c-0.2-0.2-0.4-0.5-0.5-0.9c-0.1-0.3-0.2-0.7-0.2-1.1v-12.7
			c0-0.4,0.1-0.7,0.2-1.1c0.1-0.3,0.3-0.6,0.5-0.9c0.2-0.3,0.5-0.5,0.9-0.6c0.4-0.1,0.8-0.2,1.3-0.2H79.9z M79.9,136.7
			c0.3,0,0.5-0.1,0.6-0.2c0.1-0.2,0.2-0.3,0.2-0.5v-12.7c0-0.2-0.1-0.4-0.2-0.5c-0.1-0.2-0.3-0.2-0.6-0.2h-1.5
			c-0.3,0-0.5,0.1-0.6,0.2s-0.2,0.3-0.2,0.5v12.7c0,0.2,0.1,0.4,0.2,0.5c0.1,0.2,0.3,0.2,0.6,0.2H79.9z"/>
	</g>
	<g>
		<path class="st1" d="M66.7,62.7c-5.2,4.7-12.1,7.5-19.6,7.3c-15.6-0.4-28-13.3-27.6-28.9c0.4-15.6,13.3-28,28.9-27.6
			c5.7,0.1,11,2,15.4,5l6.4-10.3C64.1,4,56.7,1.5,48.7,1.3C26.4,0.8,7.9,18.5,7.4,40.8C6.9,63.1,24.5,81.6,46.8,82.1
			c11.5,0.3,22.1-4.3,29.6-11.9L66.7,62.7z"/>
		<path class="st0" d="M58.8,65.1c-0.6,0.3-1.3,0.6-1.9,0.8c-1.6-1.3-4.2-2.3-7.8-0.3c-1.5,0.8-3,1.4-4.4,1.7
			c-1.1-0.1-2.2-0.4-3.4-0.7c-0.6-0.1-1.1-0.3-1.6-0.5c2-0.1,5.3-0.5,8.5-2.2C53.2,61.1,56.8,63.2,58.8,65.1z M44.7,60.9
			c-3.2,1.6-7.5,2.1-12.1,1.6c1,0.8,2.2,1.5,3.3,2.1c3.6,0,7-0.7,9.6-2c8.4-4.2,12.7-1.6,15.6,1.2c0.7-0.4,1.4-0.7,1.9-1.2
			C59.9,59.4,54.4,56,44.7,60.9z M23.5,35.3c-0.8,2.5-1.1,5-1.2,7.6c-0.1-2.7-0.1-5.3,0.5-8c0.6-2.5,1.6-4.8,2.9-7.1
			c1.4-2.6,3.6-4.9,5.9-6.7c2.4-1.9,5.1-3.4,8-4.4c2.5-0.8,5.1-1.2,7.7-1.3c2.6-0.1,5.3,0.4,7.8,1.1c2.5,0.7,4.8,1.8,6.9,3.2
			c2.1,1.3,3.8,3,5.3,4.6c1.5,1.7,2.6,3.5,3.5,5.3c2,3.9,2.7,8.2,2.6,12.5c-0.1-1.1-0.2-2.1-0.4-3.1c-2.7,0.3-5.5,0.2-8.2-0.2
			c-0.2,1.2-0.5,2.4-0.8,3.6c0.2-1.2,0.3-2.4,0.4-3.6c-1-0.2-2-0.3-3-0.6c1,0.1,2,0.1,3,0.2c0.2-3.2,0.2-6.4-0.5-9.5
			c-0.7-0.1-1.4-0.2-2.1-0.4c0.7,0,1.4,0.1,2,0.1c-0.1-0.5-0.3-1.1-0.4-1.6c-0.5-1.7-1.3-3.4-2.5-4.8c-1-1.2-2.3-2.1-3.7-2.8
			c-1,0.9-2.8,3.2-3.9,4.8c-0.2,0.3-0.5,0.7-0.7,1c1.2,0.6,2.4,1.2,3.7,1.7c-1.3-0.4-2.6-0.8-3.9-1.3c-1,1.4-1.9,2.9-2.7,4.4
			c-0.7,1.2-1.3,2.5-2,3.8c2.3,1.1,4.7,2,7.1,3c-2.5-0.8-4.9-1.6-7.3-2.5c-0.8,1.8-1.6,3.5-2.3,5.4c0.5-1.9,1.2-3.7,1.9-5.5
			c-1.6-0.6-3.2-1.3-4.7-2.1c-2.3-1.1-4.5-2.4-6.6-3.9c-1.8,2.3-3.2,4.8-4.4,7.5l7.3,3.4l-7.7-2.5c-0.7,1.7-1.3,3.4-1.8,5.2
			c0.3-1.8,0.7-3.6,1.2-5.4L24,34C23.8,34.4,23.6,34.9,23.5,35.3z M69.4,29.4c-1.4-0.1-2.7-0.2-4.1-0.4c0.1,0.9,0.2,1.8,0.2,2.6
			c0,2.2-0.2,4.4-0.6,6.6c2.6,0.1,5.2-0.1,7.8-0.8c-0.3-1.3-0.6-2.5-1.1-3.7C70.9,32.2,70.2,30.8,69.4,29.4z M63.5,22.8
			c0.6,1.2,1,2.4,1.3,3.6c0.2,0.7,0.3,1.3,0.4,2c1.1,0,2.2-0.1,3.3-0.2c-0.7-1-1.5-2-2.3-2.9C65.3,24.3,64.4,23.5,63.5,22.8z
			 M51.1,24.9c-2.7-1.1-5.3-2.4-7.7-4c-1.3,0.8-2.4,1.6-3.5,2.6c-1.2,1-2.2,2.1-3.2,3.3c1.2,1,2.5,1.9,3.9,2.8
			c2.2,1.4,4.4,2.6,6.7,3.7c0.5-1.3,1.1-2.6,1.7-3.9C49.6,27.9,50.3,26.4,51.1,24.9z M44.8,20.1c2.1,1.7,4.3,3.1,6.6,4.3
			c1.1-2.1,2.4-4,3.9-5.8c-1.6-0.4-3.2-0.5-4.8-0.3C48.5,18.5,46.6,19.2,44.8,20.1z M42.4,17.9c0.2,0.2,0.6,0.6,0.9,0.9
			c0.2-0.1,0.4-0.2,0.6-0.3c0.7-0.4,1.5-0.7,2.3-1.1C44.9,17.5,43.6,17.6,42.4,17.9z M32.5,22.5c0.3,0.4,0.6,0.8,0.9,1.2
			c0.7,0.7,1.4,1.4,2.1,2.1c1-1.3,2.1-2.5,3.2-3.6c0.9-0.9,2-1.7,3.1-2.4c-0.1-0.1-1-0.7-1.5-1.3c0,0-0.1,0-0.2,0
			C37.4,19.4,34.8,20.7,32.5,22.5z M24.7,32.3l5.9,2.7c1-2.8,2.3-5.5,3.9-8c-1.3-1-2.5-2.1-3.5-3.4c-1.7,1.4-3.1,3.1-4.3,5
			C26,29.8,25.3,31,24.7,32.3z M81.2,43.1c-0.2-0.3-0.6-0.4-1-0.4L59,46.5l-6.9-3.4l-8.1,1.5l-5.4-3.4l-16.4,3
			c0.1,0.6,0.1,1.1,0.2,1.6l15.8-2.9l3.4,2.1l-18.5,3.4c0.1,0.5,0.3,1,0.5,1.5l28.1-5.3l4.5,2.3l-31.7,5.6c0.3,0.6,0.5,1.1,0.8,1.7
			L78.1,45L63.6,60.1l1.3,1.1l16.2-17.1C81.3,43.9,81.4,43.5,81.2,43.1z"/>
	</g>
</g>
</svg>
