<svg version="1.1" id="Capa_1" xmlns="http://www.w3.org/2000/svg" x="0" y="0" viewBox="0 0 512 512" xml:space="preserve"><path d="M448.8 48.2H269.186C262.434 20.571 237.48 0 207.8 0s-54.633 20.571-61.386 48.2H63.2c-8.284 0-15 6.716-15 15V497c0 8.284 6.716 15 15 15h385.6c8.284 0 15-6.716 15-15V63.2c0-8.284-6.716-15-15-15zM207.8 30c12.911 0 24.115 7.412 29.604 18.2h-59.206C183.686 37.412 194.89 30 207.8 30zm226 452H78.2V78.2h66.4v81.4c0 34.849 28.351 63.2 63.199 63.2 34.849 0 63.2-28.352 63.2-63.2v-16.067c0-8.284-6.716-15-15-15-8.284 0-15 6.716-15 15V159.6c0 18.307-14.894 33.2-33.2 33.2-18.306 0-33.199-14.894-33.199-33.2V78.2h259.2V482z"/><path d="M352.399 385.6H159.601c-8.284 0-15 6.716-15 15s6.716 15 15 15H352.4c8.284 0 15-6.716 15-15-.001-8.285-6.716-15-15.001-15zm.001-96.4H159.601c-8.285 0-15 6.716-15 15 0 8.284 6.716 15 15 15H352.4c8.284 0 15-6.716 15-15s-6.716-15-15-15z"/></svg>