<svg id="_x31_" height="17" viewBox="0 0 24 24" width="20" xmlns="http://www.w3.org/2000/svg"><path d="M19.5 24h-15A2.503 2.503 0 012 21.5v-19C2 1.122 3.122 0 4.5 0h15C20.878 0 22 1.122 22 2.5v19c0 1.378-1.122 2.5-2.5 2.5zM4.5 1C3.673 1 3 1.673 3 2.5v19c0 .827.673 1.5 1.5 1.5h15c.827 0 1.5-.673 1.5-1.5v-19c0-.827-.673-1.5-1.5-1.5z"/><path d="M11.5 10a.5.5 0 01-.5-.5V9H6v.5a.5.5 0 01-1 0v-1a.5.5 0 01.5-.5h6a.5.5 0 01.5.5v1a.5.5 0 01-.5.5z"/><path d="M8.5 15a.5.5 0 01-.5-.5v-6a.5.5 0 011 0v6a.5.5 0 01-.5.5z"/><path d="M9.5 15h-2a.5.5 0 010-1h2a.5.5 0 010 1zm9-6h-4a.5.5 0 010-1h4a.5.5 0 010 1zm0 3h-4a.5.5 0 010-1h4a.5.5 0 010 1zm0 3h-4a.5.5 0 010-1h4a.5.5 0 010 1zm0 3h-13a.5.5 0 010-1h13a.5.5 0 010 1zm0 3h-13a.5.5 0 010-1h13a.5.5 0 010 1z"/></svg>